<?xml version="1.0" encoding="utf-8"?>
<!-- Generator: Adobe Illustrator 23.0.1, SVG Export Plug-In . SVG Version: 6.00 Build 0)  -->
<svg version="1.1" id="Layer_1" xmlns="http://www.w3.org/2000/svg" xmlns:xlink="http://www.w3.org/1999/xlink" x="0px" y="0px"
	 viewBox="0 0 252.8 100.9" style="enable-background:new 0 0 252.8 100.9;" xml:space="preserve">
<style type="text/css">
	.st0{fill:#070606;}
	.st1{fill:#042B0B;}
	.st2{fill:url(#SVGID_1_);}
</style>
<g>
	<g>
		<g>
			<path class="st0" d="M134.8,28.3c-0.7-2-1.7-3.7-3.2-4.9c-1.4-1.2-3.3-2-5.5-2.5c-2.1-0.4-4.6-0.7-7.5-0.7
				c-2.1,0-3.9,0.1-5.3,0.3c-1.5,0.2-2.7,0.5-3.6,0.9c-0.2,0.1-0.4,0.2-0.6,0.2v-9.1h-7.7v37.2h7.7v-1.2c0.2,0.1,0.4,0.2,0.6,0.3
				c0.9,0.4,2.1,0.7,3.6,1c1.5,0.3,3.3,0.5,5.4,0.5c2.9,0,5.4-0.2,7.5-0.7c2.2-0.5,4.1-1.3,5.5-2.5c1.5-1.2,2.6-2.8,3.2-4.9
				c0.6-1.9,0.9-4.2,0.9-6.9C135.7,32.5,135.4,30.2,134.8,28.3z M118.6,43.2c-1.4,0-2.6,0-3.7-0.1c-1-0.1-1.8-0.2-2.6-0.4
				c-0.6-0.2-1.1-0.4-1.5-0.7c-0.4-0.3-0.7-0.6-0.9-1.1c-0.3-0.5-0.5-1.3-0.6-2.1c-0.2-1-0.2-2.1-0.2-3.5c0-1.4,0.1-2.6,0.2-3.6
				c0.1-0.9,0.4-1.6,0.6-2.2c0.2-0.5,0.5-0.9,0.9-1.1c0.4-0.3,0.9-0.5,1.5-0.7c0.7-0.2,1.6-0.3,2.5-0.4c1.1-0.1,2.3-0.1,3.7-0.1
				c1.6,0,3,0,4.1,0.1c1.1,0.1,2,0.3,2.7,0.5c0.6,0.2,1.1,0.4,1.4,0.7c0.3,0.3,0.6,0.7,0.8,1.1c0.2,0.6,0.4,1.3,0.5,2.1
				c0.1,1,0.1,2.1,0.1,3.4c0,1.3,0,2.4-0.1,3.4c-0.1,0.8-0.2,1.6-0.5,2.1c-0.2,0.5-0.4,0.8-0.8,1.1c-0.3,0.3-0.8,0.5-1.4,0.7
				c-0.7,0.2-1.6,0.4-2.7,0.5C121.5,43.2,120.1,43.2,118.6,43.2z"/>
			<path class="st0" d="M170.9,28.7c-0.6-2.1-1.5-3.8-2.9-5.1c-1.3-1.3-3.1-2.2-5.1-2.7c-1.9-0.5-4.2-0.7-6.9-0.7
				c-2.7,0-5,0.1-6.9,0.4c-2,0.3-3.6,0.8-4.9,1.4c-1.4,0.7-2.5,1.7-3.1,3c-0.6,1.2-0.9,2.6-0.9,4.2V31h7.7v-1.7c0-0.4,0.1-0.8,0.2-1
				c0-0.1,0.2-0.3,0.7-0.5c0.6-0.2,1.5-0.4,2.6-0.5c1.2-0.1,2.8-0.1,4.7-0.1c1.2,0,2.3,0,3.2,0.1c0.8,0.1,1.5,0.2,2.1,0.4
				c0.5,0.2,0.9,0.4,1.2,0.7c0.3,0.3,0.6,0.7,0.8,1.2c0.3,0.6,0.4,1.5,0.6,2.5c0,0.3,0.1,0.6,0.1,0.9c-0.2-0.1-0.4-0.1-0.6-0.2
				c-1-0.3-2.1-0.5-3.6-0.7c-1.4-0.2-3.2-0.3-5.2-0.3c-1.4,0-2.8,0-4,0.1c-1.3,0-2.6,0.2-3.7,0.4c-1.2,0.2-2.2,0.5-3.2,0.9
				c-1,0.4-1.9,1-2.7,1.8c-0.8,0.8-1.3,1.7-1.7,2.9c-0.4,1.1-0.5,2.3-0.5,3.8c0,1.5,0.4,2.9,1.1,4.1c0.7,1.2,1.8,2.1,3.3,2.8
				c1.4,0.6,3,1.1,5.1,1.4c1.9,0.3,4.3,0.4,7,0.4c2.1,0,3.8-0.1,5.1-0.4c1.4-0.3,2.5-0.6,3.4-1.1c0.1,0,0.1-0.1,0.2-0.1v1.1h7.7V36
				C171.7,33.1,171.4,30.7,170.9,28.7z M146.4,40.8c0-0.8,0.1-1.2,0.2-1.3c0,0,0.1-0.2,0.5-0.3c0.4-0.1,1.1-0.3,2.5-0.4
				c1.3-0.1,2.9-0.1,5-0.1c2,0,3.8,0.1,5.2,0.2c1.3,0.1,2.3,0.3,3.1,0.6c0.7,0.3,1,0.5,1.1,0.6c0.1,0.1,0.2,0.3,0.2,0.7
				c0,0.4-0.1,0.7-0.2,0.9c-0.1,0.2-0.4,0.4-0.9,0.6c-0.6,0.3-1.5,0.5-2.5,0.6c-1.2,0.2-2.7,0.2-4.4,0.2c-2.4,0-4.4-0.1-5.8-0.2
				c-1.6-0.1-2.5-0.3-2.9-0.5c-0.4-0.2-0.6-0.3-0.6-0.4C146.5,42,146.4,41.6,146.4,40.8z"/>
			<path class="st0" d="M208.2,30.2c-0.1-1.2-0.4-2.4-0.7-3.4c-0.4-1.1-0.9-2-1.6-2.9c-0.7-0.9-1.7-1.6-2.8-2.1
				c-1.1-0.5-2.4-0.9-3.9-1.2c-1.4-0.3-3.2-0.4-5.1-0.4c-0.7,0-1.4,0-2.2,0.1c-0.8,0-1.7,0.1-2.6,0.3c-0.9,0.1-1.8,0.3-2.7,0.6
				c-0.9,0.3-1.8,0.6-2.7,1c-0.3,0.1-0.5,0.3-0.7,0.4v-1.6h-7.7v28.8h7.7V32.5c0-0.8,0.1-1.6,0.4-2.3c0.2-0.5,0.6-1,1.1-1.4
				c0.6-0.5,1.6-0.9,2.8-1.1c1.3-0.3,3.1-0.5,5.2-0.5c2,0,3.6,0.1,4.7,0.4c1,0.2,1.7,0.6,2.2,1c0.4,0.4,0.7,1,0.9,1.7
				c0.2,1,0.3,2.2,0.3,3.6v15.8h7.7l0-15.8C208.4,32.6,208.3,31.3,208.2,30.2z"/>
			<polygon class="st0" points="225.2,34.5 245.8,20.9 233.2,20.9 218.6,30.4 218.6,12.5 210.9,12.5 210.9,49.7 218.6,49.7 
				218.6,38.2 233.9,49.7 246.1,49.7 			"/>
		</g>
		<g>
			<path class="st1" d="M134.8,67.1c-0.7-2-1.7-3.7-3.2-4.9c-1.4-1.2-3.3-2-5.5-2.5c-2.1-0.4-4.6-0.7-7.5-0.7
				c-2.1,0-3.9,0.1-5.3,0.3c-1.5,0.2-2.7,0.5-3.6,0.9c-0.2,0.1-0.4,0.2-0.6,0.2v-9.1h-7.7v37.2h7.7v-1.2c0.2,0.1,0.4,0.2,0.6,0.3
				c0.9,0.4,2.1,0.7,3.6,1c1.5,0.3,3.3,0.5,5.4,0.5c2.9,0,5.4-0.2,7.5-0.7c2.2-0.5,4.1-1.3,5.5-2.5c1.5-1.2,2.6-2.8,3.2-4.9
				c0.6-1.9,0.9-4.2,0.9-6.9C135.7,71.3,135.4,69,134.8,67.1z M118.6,82c-1.4,0-2.6,0-3.7-0.1c-1-0.1-1.8-0.2-2.6-0.4
				c-0.6-0.2-1.1-0.4-1.5-0.7c-0.4-0.3-0.7-0.6-0.9-1.1c-0.3-0.5-0.5-1.3-0.6-2.1c-0.2-1-0.2-2.1-0.2-3.5c0-1.4,0.1-2.6,0.2-3.6
				c0.1-0.9,0.4-1.6,0.6-2.2c0.2-0.5,0.5-0.9,0.9-1.1c0.4-0.3,0.9-0.5,1.5-0.7c0.7-0.2,1.6-0.3,2.5-0.4c1.1-0.1,2.3-0.1,3.7-0.1
				c1.6,0,3,0,4.1,0.1c1.1,0.1,2,0.3,2.7,0.5c0.6,0.2,1.1,0.4,1.4,0.7c0.3,0.3,0.6,0.7,0.8,1.1c0.2,0.6,0.4,1.3,0.5,2.1
				c0.1,1,0.1,2.1,0.1,3.4c0,1.3,0,2.4-0.1,3.4c-0.1,0.8-0.2,1.5-0.5,2.1c-0.2,0.5-0.4,0.8-0.8,1.1c-0.3,0.3-0.8,0.5-1.4,0.7
				c-0.7,0.2-1.6,0.4-2.7,0.5C121.5,82,120.1,82,118.6,82z"/>
			<path class="st1" d="M171.5,66.9c-0.7-2-1.7-3.6-3.2-4.8c-1.4-1.2-3.3-2-5.5-2.4c-2.1-0.4-4.6-0.6-7.5-0.6s-5.4,0.2-7.5,0.6
				c-2.2,0.5-4.1,1.3-5.5,2.4c-1.5,1.2-2.6,2.8-3.2,4.8c-0.6,1.9-0.9,4.2-0.9,6.9c0,2.8,0.3,5.1,0.9,7c0.7,2,1.7,3.7,3.2,4.9
				c1.4,1.2,3.3,2,5.5,2.5c2.1,0.4,4.6,0.7,7.5,0.7c2.9,0,5.5-0.2,7.5-0.7c2.2-0.5,4.1-1.3,5.5-2.5c1.5-1.2,2.6-2.9,3.2-4.9
				c0.6-1.9,0.9-4.3,0.9-7C172.4,71.1,172.1,68.8,171.5,66.9z M146.3,79.5c-0.2-0.6-0.4-1.3-0.5-2.2c-0.1-1-0.1-2.1-0.1-3.5
				c0-1.4,0.1-2.6,0.2-3.5c0.1-0.9,0.4-1.6,0.6-2.1c0.2-0.5,0.5-0.8,0.9-1.1c0.4-0.3,0.9-0.5,1.5-0.7c0.7-0.2,1.6-0.3,2.6-0.4
				c1.1-0.1,2.3-0.1,3.7-0.1c1.4,0,2.6,0,3.7,0.1c1,0.1,1.9,0.2,2.6,0.4c0.6,0.2,1.1,0.4,1.6,0.7c0.4,0.3,0.6,0.6,0.9,1.1
				c0.3,0.5,0.5,1.3,0.6,2.1c0.2,1,0.2,2.1,0.2,3.5c0,1.4-0.1,2.6-0.2,3.6c-0.1,0.9-0.4,1.7-0.6,2.2c-0.2,0.5-0.5,0.8-0.9,1.1
				c-0.4,0.3-0.9,0.5-1.6,0.7c-0.7,0.2-1.6,0.3-2.5,0.4c-1.1,0.1-2.3,0.1-3.7,0.1c-1.6,0-3,0-4.1-0.1c-1.1-0.1-1.9-0.3-2.6-0.5
				c-0.6-0.2-1.1-0.5-1.4-0.7C146.7,80.4,146.5,80,146.3,79.5z"/>
			<path class="st1" d="M208.1,66.9c-0.7-2-1.7-3.6-3.2-4.8c-1.4-1.2-3.3-2-5.5-2.4c-2.1-0.4-4.6-0.6-7.5-0.6s-5.4,0.2-7.5,0.6
				c-2.2,0.5-4.1,1.3-5.5,2.4c-1.5,1.2-2.6,2.8-3.2,4.8c-0.6,1.9-0.9,4.2-0.9,6.9c0,2.8,0.3,5.1,0.9,7c0.7,2,1.7,3.7,3.2,4.9
				c1.4,1.2,3.3,2,5.5,2.5c2.1,0.4,4.6,0.7,7.5,0.7c2.9,0,5.5-0.2,7.5-0.7c2.2-0.5,4.1-1.3,5.5-2.5c1.5-1.2,2.6-2.9,3.2-4.9
				c0.6-1.9,0.9-4.3,0.9-7C209,71.1,208.7,68.8,208.1,66.9z M183,79.5c-0.2-0.6-0.4-1.3-0.5-2.2c-0.1-1-0.1-2.1-0.1-3.5
				c0-1.4,0.1-2.6,0.2-3.5c0.1-0.9,0.4-1.6,0.6-2.1c0.2-0.5,0.5-0.8,0.9-1.1c0.4-0.3,0.9-0.5,1.5-0.7c0.7-0.2,1.6-0.3,2.6-0.4
				c1.1-0.1,2.3-0.1,3.7-0.1c1.4,0,2.6,0,3.7,0.1c1,0.1,1.9,0.2,2.6,0.4c0.6,0.2,1.1,0.4,1.6,0.7c0.4,0.3,0.6,0.6,0.9,1.1
				c0.3,0.5,0.5,1.3,0.6,2.1c0.2,1,0.2,2.1,0.2,3.5c0,1.4-0.1,2.6-0.2,3.6c-0.1,0.9-0.4,1.7-0.6,2.2c-0.2,0.5-0.5,0.8-0.9,1.1
				c-0.4,0.3-0.9,0.5-1.6,0.7c-0.7,0.2-1.6,0.3-2.5,0.4c-1.1,0.1-2.3,0.1-3.7,0.1c-1.6,0-3,0-4.1-0.1c-1.1-0.1-1.9-0.3-2.6-0.5
				c-0.6-0.2-1.1-0.5-1.4-0.7C183.4,80.4,183.1,80,183,79.5z"/>
			<polygon class="st1" points="225.2,73.3 245.8,59.7 233.2,59.7 218.6,69.2 218.6,51.3 210.9,51.3 210.9,88.5 218.6,88.5 
				218.6,77 233.9,88.5 246.1,88.5 			"/>
		</g>
	</g>
	<linearGradient id="SVGID_1_" gradientUnits="userSpaceOnUse" x1="15.0991" y1="14.9008" x2="101.8759" y2="104.8878">
		<stop  offset="0" style="stop-color:#0FB235"/>
		<stop  offset="9.914961e-02" style="stop-color:#10A63D"/>
		<stop  offset="0.2804" style="stop-color:#148551"/>
		<stop  offset="0.5235" style="stop-color:#1A4F72"/>
		<stop  offset="0.8163" style="stop-color:#23069F"/>
		<stop  offset="0.8208" style="stop-color:#2305A0"/>
	</linearGradient>
	<path class="st2" d="M49.4,7.8C25.8,7.8,6.7,26.9,6.7,50.5s19.1,42.7,42.7,42.7S92.1,74,92.1,50.5S73,7.8,49.4,7.8z M44.7,69.5
		c0,0.6-0.5,1.1-1.1,1.1h-8.9c-0.6,0-1.1-0.5-1.1-1.1V50.8h11.1V69.5z M65.2,69.5c0,0.6-0.5,1.1-1.1,1.1h-8.9
		c-0.6,0-1.1-0.5-1.1-1.1V50.8h11.1V69.5z M69.7,46.8H29.1v-5.7c0-0.4,0.3-0.8,0.7-1L49,32c0.3-0.1,0.6-0.1,0.8,0L69,40.1
		c0.4,0.2,0.7,0.6,0.7,1V46.8z"/>
</g>
</svg>
