<?xml version="1.0" encoding="utf-8"?>
<!-- Generator: Adobe Illustrator 23.0.1, SVG Export Plug-In . SVG Version: 6.00 Build 0)  -->
<svg version="1.1" id="Layer_1" xmlns="http://www.w3.org/2000/svg" xmlns:xlink="http://www.w3.org/1999/xlink" x="0px" y="0px"
	 viewBox="0 0 577.2 130.1" style="enable-background:new 0 0 577.2 130.1;" xml:space="preserve">
<style type="text/css">
	.st0{fill:#10008B;}
	.st1{fill:#00B7D0;}
	.st2{fill:url(#SVGID_1_);}
</style>
<g>
	<g>
		<path class="st0" d="M171.8,104.2c-5.9,0-11.2-1.5-15.8-4.6c-4.6-3.1-8.3-7.4-11-12.8c-2.7-5.4-4-11.7-4-18.7c0-7,1.3-13.2,4-18.6
			c2.7-5.4,6.4-9.7,11-12.9c4.7-3.1,10-4.7,16-4.7c3.9,0,7.6,0.7,11.2,2.2c3.5,1.5,6.5,3.4,8.8,5.7V18.5h22.2v84.2h-20.4l-0.7-7.3
			c-2.3,2.5-5.3,4.6-9.1,6.3S176.2,104.2,171.8,104.2z M177.6,85.9c4.6,0,8.2-1.6,10.9-4.8c2.7-3.2,4-7.6,4-13.1
			c0-5.4-1.3-9.7-4-12.9c-2.7-3.2-6.3-4.8-10.9-4.8c-4.5,0-8.1,1.6-10.8,4.8c-2.7,3.2-4,7.5-4,12.9c0,5.5,1.3,9.8,4,13.1
			C169.5,84.3,173.1,85.9,177.6,85.9z"/>
		<path class="st0" d="M258.8,104c-7.7,0-14.5-1.5-20.2-4.6c-5.7-3.1-10.1-7.3-13.2-12.7c-3.1-5.4-4.7-11.5-4.7-18.4
			c0-7.1,1.5-13.4,4.6-18.9c3-5.4,7.2-9.7,12.5-12.9c5.3-3.1,11.4-4.7,18.1-4.7c6.5,0,12.3,1.5,17.4,4.6c5,3,9,7.2,11.7,12.5
			c2.8,5.3,4.1,11.4,4,18.1l-0.1,5.6h-46.9c1.1,3.7,3.3,6.7,6.6,8.9c3.3,2.2,7.5,3.3,12.6,3.3c2.9,0,5.4-0.4,7.6-1.2
			c2.2-0.8,4.6-2.2,7.1-4.2L286.3,94c-4.4,3.6-8.8,6.1-13.4,7.7C268.3,103.2,263.6,104,258.8,104z M256.3,50.1
			c-7.9,0-12.7,3.6-14.5,10.7h26.9v-0.1c-0.2-3-1.4-5.6-3.7-7.6C262.7,51.1,259.8,50.1,256.3,50.1z"/>
		<path class="st0" d="M326.6,104.2c-5.9,0-11.2-1.5-15.8-4.6c-4.6-3.1-8.3-7.4-11-12.8c-2.7-5.4-4-11.7-4-18.7c0-7,1.3-13.2,4-18.6
			c2.7-5.4,6.4-9.7,11-12.9c4.7-3.1,10-4.7,16-4.7c3.9,0,7.6,0.7,11.2,2.2c3.5,1.5,6.5,3.4,8.8,5.7V18.5H369v84.2h-20.4l-0.7-7.3
			c-2.3,2.5-5.3,4.6-9.1,6.3C335.2,103.3,331.1,104.2,326.6,104.2z M332.5,85.9c4.6,0,8.2-1.6,10.9-4.8c2.7-3.2,4-7.6,4-13.1
			c0-5.4-1.3-9.7-4-12.9c-2.7-3.2-6.3-4.8-10.9-4.8c-4.5,0-8.1,1.6-10.8,4.8c-2.7,3.2-4,7.5-4,12.9c0,5.5,1.3,9.8,4,13.1
			C324.4,84.3,328,85.9,332.5,85.9z"/>
		<path class="st0" d="M401.5,104.2c-7.7,0-13.6-2.5-17.9-7.4c-4.3-4.9-6.5-11.8-6.5-20.7V33.3h22.2v40.2c0,3.9,0.9,7,2.8,9.1
			c1.9,2.2,4.5,3.3,8,3.3c3.4,0,6.2-1,8.4-3.1c2.2-2.1,3.3-4.7,3.3-8V33.3h22.2v69.4h-20.8l-0.7-8.6c-2.3,3-5.3,5.5-9,7.3
			C409.7,103.2,405.7,104.2,401.5,104.2z"/>
		<path class="st1" d="M531.6,102.7V52.5H529V33.3h2.6V18.5h22.2v14.8h12.9v19.2h-12.9v50.2H531.6z"/>
		<g>
			<path class="st1" d="M451.9,18.5v84.2h21.9V18.5H451.9z"/>
			<polygon class="st1" points="525.9,33.4 496.8,33.4 468.5,62.5 474.1,69.9 499,102.8 525,102.8 493.8,63.4 			"/>
		</g>
	</g>
	<linearGradient id="SVGID_1_" gradientUnits="userSpaceOnUse" x1="27.6836" y1="96.6281" x2="117.4457" y2="25.9092">
		<stop  offset="0" style="stop-color:#00B7D0"/>
		<stop  offset="1" style="stop-color:#230096"/>
	</linearGradient>
	<path class="st2" d="M67.8,7.8C36.2,7.8,10.5,33.4,10.5,65c0,31.6,25.6,57.2,57.2,57.2c31.6,0,57.2-25.6,57.2-57.2
		C125,33.4,99.4,7.8,67.8,7.8z M100.2,88.4c-1.6,2.2-3.4,4.2-5.3,6c-7.1,6.5-16.5,10.4-26.8,10.4c-10.3,0-19.7-3.9-26.8-10.4
		c-1.8-1.6-3.4-3.4-4.8-5.3l0.5-0.7l18.7-23.7l-21-19.6L34,44.5c0.5-0.8,1-1.6,1.6-2.4C42.8,32,54.7,25.3,68.1,25.3
		s25.3,6.7,32.5,16.8c0.7,1,1.3,2,1.9,3l-21,19.6L100.2,88.4z"/>
</g>
</svg>
