<?xml version="1.0" encoding="utf-8"?>
<!-- Generator: Adobe Illustrator 23.0.1, SVG Export Plug-In . SVG Version: 6.00 Build 0)  -->
<svg version="1.1" id="Layer_1" xmlns="http://www.w3.org/2000/svg" xmlns:xlink="http://www.w3.org/1999/xlink" x="0px" y="0px"
	 viewBox="0 0 919.3 273.2" style="enable-background:new 0 0 919.3 273.2;" xml:space="preserve">
<style type="text/css">
	.st0{fill:#0F1F3C;}
	.st1{opacity:0.25;clip-path:url(#SVGID_2_);fill:#2B99D5;}
	.st2{fill:#2B99D5;}
</style>
<g>
	<path class="st0" d="M861.6,51.5c-23.9-23.3-53.2-34.9-88.1-34.9c-34.9,0-64.3,11.6-88.1,34.9c-23.9,23.3-35.8,52.3-35.8,86.9
		c0,34.7,11.9,63.6,35.8,86.9c23.9,23.3,53.2,34.9,88.1,34.9c34.9,0,64.3-11.6,88.1-34.9c23.9-23.3,35.8-52.3,35.8-86.9
		C897.4,103.8,885.5,74.8,861.6,51.5z M836.6,120.5c-1.7,21.1-20.1,57.8-49.2,75.6c-11.9,7.3-26.9,7.3-38.8,0
		c-28.5-17.5-36.3-48.6-38.3-69.6c-1.3-13.7,7-26.4,20-30.8c24.6-8.2,61-12.4,87.6-3.4C829.9,96.4,837.6,108,836.6,120.5z"/>
	<g>
		<defs>
			<path id="SVGID_1_" d="M860.6,224.4c-23.9,23.3-53.2,34.9-88.1,34.9c-34.9,0-64.3-11.6-88.1-34.9c-23.9-23.3-35.8-52.3-35.8-86.9
				c0-34.7,11.9-63.6,35.8-86.9c23.9-23.3,53.2-34.9,88.1-34.9c34.9,0,64.3,11.6,88.1,34.9c23.9,23.3,35.8,52.3,35.8,86.9
				C896.4,172.2,884.5,201.1,860.6,224.4z"/>
		</defs>
		<clipPath id="SVGID_2_">
			<use xlink:href="#SVGID_1_"  style="overflow:visible;"/>
		</clipPath>
		<path class="st1" d="M825.1,10c-13.8-18.7-38.7-25.5-60.1-16.5c-47.8,20-93.4,70.1-117.5,111.4c-12.8,21.9-8.7,49.7,9.6,67.1
			c28.3,26.9,77,60.6,137.9,50.1c25.4-4.4,46.2-22.6,53.9-47.2C867.5,114.8,848.3,41.4,825.1,10z M836.6,120.5
			c-1.7,21.1-20.1,57.8-49.2,75.6c-11.9,7.3-26.9,7.3-38.8,0c-28.5-17.5-36.3-48.6-38.3-69.6c-1.3-13.7,7-26.4,20-30.8
			c24.6-8.2,61-12.4,87.6-3.4C829.9,96.4,837.6,108,836.6,120.5z"/>
	</g>
	<path class="st0" d="M188.7,134h0.5c29,0,52.5,23.5,52.5,52.5v31.3c-23.4,26.1-55.8,39.2-97.2,39.2c-34.7,0-63.8-11.5-87.3-34.4
		c-23.5-23-35.3-51.9-35.3-86.9c0-35,12-64.2,36-87.6c24-23.4,52.9-35.1,86.8-35.1c33.9,0,63.3,11.1,88.3,33.4l-3.4,5
		c-11.8,17-33.7,23.2-52.9,15.6c-0.1,0-0.2-0.1-0.3-0.1c-8.9-3.5-18.5-5.2-28.9-5.2c-20,0-36.9,6.8-50.6,20.4
		c-13.7,13.6-20.6,31.6-20.6,53.9s6.6,40.1,19.8,53.5c13.2,13.4,28.9,20.1,47.1,20.1c0.2,0,0.4,0,0.5,0c25-0.1,45-20.6,45-45.5V134z
		"/>
	<path class="st0" d="M296.9,69.5h0.5c28.8,0,52.1,38.3,52.1,67.1v117.6h-0.5c-28.8,0-52.1-23.3-52.1-70.1V69.5z"/>
	<path class="st2" d="M297.5,18.2h-0.5v37.5h0.5c28.8,0,52.1,23.3,52.1,52.1V70.4C349.6,41.6,326.3,18.2,297.5,18.2z"/>
	<path class="st0" d="M552.1,169.8c29.9-11,44.9-35.5,44.9-73.3c0-27.5-7.8-47.4-23.5-59.8c-15.6-12.4-41.8-18.6-78.5-18.6h-57.5
		c-18,0-32,4.5-32,32v204h0.5c28.8,0,52.1-23.3,52.1-52.1V179v-45.6V93.3V75.5c0-6.6,5.4-12,12-12h27.5c16.9,0,28.7,2.4,35.5,7.1
		c6.8,4.7,10.1,13.5,10.1,26.2c0,12.7-3.3,22-9.8,27.9c-1.9,1.7-4.4,3.2-7.4,4.4l0,0c0,0,0,0-0.1,0c-1.9,0.9-3.8,2-5.7,2.9
		c-18.9,7.2-42.8,17.4-37.9,26.7l21.9,34.4l6,8.6c22.9,33,60.6,52.7,100.8,52.7h0.6L552.1,169.8z"/>
</g>
</svg>
