<?xml version="1.0" encoding="utf-8"?>
<!-- Generator: Adobe Illustrator 21.0.0, SVG Export Plug-In . SVG Version: 6.00 Build 0)  -->
<svg version="1.1" id="Layer_1" xmlns="http://www.w3.org/2000/svg" xmlns:xlink="http://www.w3.org/1999/xlink" x="0px" y="0px"
	 viewBox="0 0 1375 234" style="enable-background:new 0 0 1375 234;" xml:space="preserve">
<style type="text/css">
	.st0{fill:#49BA86;}
	.st1{fill:#236BB3;}
</style>
<g>
	<g>
		<g>
			<path class="st0" d="M328.6,103.7c-29,35.8-52.7,40.3-62.7,40.6c-10-0.3-33.7-4.7-62.7-40.6c-23.2-29.5-50.6-0.5-43.7,17.9
				c0,0,19,53.8,61.7,83.8c13.3,8.2,34.6,10.3,44.8,9.5c10.2,0.8,31.5-1.3,44.8-9.5c42.7-30,61.7-83.8,61.7-83.8
				C379.2,103.1,351.8,74.1,328.6,103.7z"/>
			<circle class="st0" cx="267.4" cy="71" r="48.4"/>
		</g>
		<g>
			<path class="st1" d="M209.2,99.7c-35.3,43.6-64.1,49.1-76.3,49.4c-12.2-0.3-41-5.8-76.3-49.4C28.3,63.7-5,99,3.3,121.5
				c0,0,23.1,65.4,75,102c16.2,10,42.1,12.5,54.5,11.5c12.5,1,38.3-1.6,54.5-11.5c52-36.6,75-102,75-102
				C270.8,99,237.4,63.7,209.2,99.7z"/>
			<circle class="st1" cx="134.8" cy="59.9" r="58.9"/>
		</g>
	</g>
	<g>
		<path class="st1" d="M629.4,171.1l32.7,9.7c-3.9,13.3-11.6,24.3-23.1,33c-11.5,8.6-25.7,12.9-42.8,12.9c-20.8,0-38.4-7-53-21
			c-14.5-14-21.8-32.8-21.8-56.3c0-22.4,7.1-40.6,21.2-54.9c14.1-14.2,30.8-21.3,50-21.3c22.4,0,39.9,6.7,52.5,20
			c12.7,13.3,19,31.7,19,55c0,1.6-0.1,3.3-0.1,5.3c-0.1,2-0.1,3.5-0.1,4.7l-0.3,2.1H560c0.4,9.4,4.1,17.3,11.2,23.5
			c7.1,6.3,15.5,9.4,25.3,9.4C613.2,193.1,624.1,185.8,629.4,171.1z M560.9,133.4h64.7c-0.4-8-3.3-14.8-8.7-20.3
			c-5.4-5.5-13.3-8.2-23.7-8.2c-9.4,0-17.1,2.9-23,8.8C564.4,119.6,561.3,126.1,560.9,133.4z"/>
		<path class="st1" d="M734.2,139v83.3h0c-21.6,0-39.1-17.5-39.1-39.1V77.5h20c9.9,0,17.9,8,17.9,17.9v0c4.1-7.1,10-12.5,17.7-16.2
			c7.6-3.7,15.7-5.6,24.1-5.6c17.1,0,30.1,5.3,39,16c8.9,10.7,13.4,24.5,13.4,41.3v91.2l0,0c-21.6,0-39.1-17.5-39.1-39.1v-45.3
			c0-8.6-2.2-15.6-6.6-20.9c-4.4-5.3-11.1-7.9-20.2-7.9c-8.2,0-14.8,2.8-19.7,8.5C736.6,123.2,734.2,130.4,734.2,139z"/>
		<path class="st1" d="M966.3,9.2c21.3,0,38.5,17.3,38.5,38.5v148.3c0,9.6,0.4,18.3,1.2,26.2H984c-9.2,0-16.7-7.4-16.8-16.6l0-0.2
			c-3.3,6.1-8.6,11-15.7,14.7c-7.2,3.7-15.4,5.6-24.9,5.6c-20.6,0-37.5-7.2-50.8-21.6c-13.2-14.4-19.9-32.6-19.9-54.6
			c0-21.4,6.5-39.3,19.6-53.8c13-14.5,29.7-21.8,49.9-21.8c20.8,0,34.4,6,40.9,17.9V9.2L966.3,9.2z M895.4,149.6
			c0,12.8,3.3,22.8,10,30.2c6.7,7.4,15.3,11,25.9,11c10.4,0,18.9-3.7,25.6-11.2c6.7-7.5,10-17.6,10-30.3c0-12.6-3.3-22.4-10-29.6
			c-6.7-7.2-15.2-10.7-25.6-10.7c-10.4,0-19,3.6-25.7,10.9C898.8,127.1,895.4,137,895.4,149.6z"/>
		<path class="st0" d="M1086.4,222.3h-1.3c-20.9,0-37.8-16.9-37.8-37.8V9.2h0c21.6,0,39.1,17.5,39.1,39.1V222.3z"/>
		<path class="st1" d="M489.4,222.3H488c-20.9,0-37.8-16.9-37.8-37.8V9.2h0c21.6,0,39.1,17.5,39.1,39.1V222.3z"/>
		<path class="st0" d="M1138.9,94.9c14.4-14.5,32.5-21.8,54.3-21.8c21.8,0,39.9,7.3,54.3,21.8c14.4,14.5,21.6,32.9,21.6,55
			c0,22.2-7.2,40.5-21.6,55c-14.4,14.5-32.5,21.8-54.3,21.8c-21.8,0-39.9-7.3-54.3-21.8c-14.4-14.5-21.6-32.9-21.6-55
			C1117.3,127.7,1124.5,109.4,1138.9,94.9z M1167.1,180.2c7.2,7.3,15.8,10.9,26,10.9c10.2,0,18.9-3.6,26-10.9
			c7.2-7.3,10.7-17.4,10.7-30.3s-3.6-23-10.7-30.3c-7.2-7.3-15.8-10.9-26-10.9c-10.2,0-18.9,3.6-26,10.9
			c-7.2,7.3-10.7,17.4-10.7,30.3S1160,172.9,1167.1,180.2z"/>
		<path class="st0" d="M1347.6,112h29.1V77.3h-29.1v-7.9c0-19.5-15.8-35.3-35.3-35.3h0v20.3c0,6.9-1.9,12.4-5.7,16.6
			c-3.8,4.2-9.4,6.3-16.6,6.3h-7.4V112h26.2v67.4c0,13.9,4.1,24.9,12.4,32.8c6.8,6.6,15.6,10.4,26.5,11.6v-51.1v-35.3V112z"/>
	</g>
</g>
</svg>
