<?xml version="1.0" encoding="utf-8"?>
<!-- Generator: Adobe Illustrator 23.0.1, SVG Export Plug-In . SVG Version: 6.00 Build 0)  -->
<svg version="1.1" id="Layer_1" xmlns="http://www.w3.org/2000/svg" xmlns:xlink="http://www.w3.org/1999/xlink" x="0px" y="0px"
	 viewBox="0 0 86.9 82" style="enable-background:new 0 0 86.9 82;" xml:space="preserve">
<style type="text/css">
	.st0{fill:#2A3281;}
	.st1{fill:#099ACF;}
</style>
<path class="st0" d="M6,61.2C6,41.3,6,21.6,6,1.7c13.5,0,26.8,0,40.3,0c0,1,0,1.8,0,2.9c-12.4,0-24.7,0-37.2,0c0,17.8,0,35.6,0,53.5
	c12.4,0,24.7,0,37.2,0c0.5,3.1,0.5,3.1-2.2,3.1c-12,0-23.9,0-35.8,0C7.4,61.2,6.7,61.2,6,61.2z"/>
<path class="st0" d="M68.6,48.3c-2,0-3.9,0-6,0c0-8.5,0-16.9,0-25.4c-6,0-12,0-18,0c0-1.9,0-3.6,0-5.4c8,0,15.9,0,24,0
	C68.6,27.7,68.6,37.9,68.6,48.3z"/>
<path class="st1" d="M20.6,17.4c2,0,3.9,0,6,0c0,8.5,0,16.9,0,25.4c6,0,12,0,18,0c0,1.9,0,3.6,0,5.4c-8,0-15.9,0-24,0
	C20.6,38.1,20.6,27.9,20.6,17.4z"/>
<path class="st0" d="M78.4,4.8c1,0,1.8,0,2.9,0c0,18.8,0,37.5,0,56.3c-8.6,0-17.1,0-25.8,0c0-1,0-1.7,0-2.9c7.5,0,15.1,0,22.9,0
	C78.4,40.3,78.4,22.5,78.4,4.8z"/>
<path class="st0" d="M0.6,66.4h1.5v6.2h2.4v1.1H0.6V66.4z"/>
<path class="st0" d="M5.4,73.7v-7.3h1.5v7.3H5.4z"/>
<path class="st0" d="M8.5,66.4h3c0.8,0,1.3,0.2,1.7,0.5c0.4,0.3,0.6,0.8,0.6,1.4c0,0.8-0.4,1.4-1.4,1.7c0.5,0.1,0.9,0.3,1.1,0.6
	c0.3,0.3,0.4,0.8,0.4,1.2c0,0.6-0.2,1-0.6,1.4c-0.4,0.3-1,0.5-1.7,0.5H8.5V66.4z M10,67.5v1.9h1.3c0.3,0,0.6-0.1,0.8-0.3
	c0.2-0.2,0.3-0.4,0.3-0.7c0-0.3-0.1-0.5-0.3-0.7c-0.2-0.2-0.4-0.3-0.8-0.3L10,67.5L10,67.5z M10,72.6h1.5c0.3,0,0.6-0.1,0.8-0.3
	c0.2-0.2,0.3-0.4,0.3-0.7c0-0.3-0.1-0.5-0.3-0.8c-0.2-0.3-0.4-0.3-0.8-0.3H10V72.6z"/>
<path class="st0" d="M19.5,66.4v1.1h-2.7v1.9h2.4v1.1h-2.4v2h2.7v1.1h-4.2v-7.3h4.2V66.4z"/>
<path class="st0" d="M22.6,70.9v2.9h-1.5v-7.3h2.7c0.9,0,1.5,0.2,1.9,0.6s0.7,1,0.7,1.6c0,0.4-0.2,0.9-0.4,1.3
	c-0.3,0.4-0.7,0.7-1.3,0.8l1.8,3h-1.7l-1.7-2.9H22.6L22.6,70.9z M22.6,67.5v2.1h1.2c0.3,0,0.6-0.1,0.9-0.3c0.2-0.2,0.3-0.4,0.3-0.8
	s-0.1-0.6-0.3-0.8c-0.2-0.2-0.4-0.3-0.9-0.3h-1.2V67.5z"/>
<path class="st0" d="M27.5,67.5v-1.1h5.4v1.1h-2v6.2h-1.5v-6.2H27.5z"/>
<path class="st0" d="M37.3,73.7h-1.5v-2.5l-2.4-4.8h1.7l1.6,3.4l1.6-3.4H40l-2.5,4.8v2.5H37.3z"/>
<path class="st0" d="M44.2,66.4h-1.8l-2.6,7.3h1.6l0.4-1.4l0.3-1.1l1-3.1l1,3.1l0.9,2.5h1.6L44.2,66.4z"/>
<path class="st0" d="M50.2,67.4c-0.3,0-0.5,0.1-0.7,0.3c-0.2,0.2-0.3,0.3-0.3,0.6s0.1,0.4,0.2,0.6c0.1,0.2,0.3,0.3,0.5,0.3
	c0.2,0.1,0.4,0.2,0.7,0.2c0.3,0.1,0.5,0.2,0.8,0.3c0.3,0.1,0.5,0.2,0.7,0.3c0.3,0.2,0.4,0.3,0.5,0.6c0.1,0.3,0.2,0.5,0.2,1
	c0,0.6-0.3,1.1-0.7,1.6c-0.4,0.4-1.1,0.6-1.9,0.6s-1.4-0.2-1.9-0.5s-0.7-0.9-0.7-1.6h1.6c0.1,0.6,0.4,1,1.1,1c0.3,0,0.6-0.1,0.8-0.3
	c0.2-0.2,0.3-0.4,0.3-0.7s-0.1-0.5-0.3-0.7c-0.3-0.2-0.6-0.3-1-0.3c-0.3-0.1-0.7-0.2-1.1-0.3c-0.4-0.1-0.7-0.3-1-0.6
	c-0.3-0.3-0.3-0.7-0.3-1.2c0-0.7,0.3-1.2,0.7-1.6c0.5-0.4,1.1-0.6,1.8-0.6s1.4,0.2,1.8,0.5c0.4,0.3,0.7,0.9,0.8,1.6h-1.6
	c0-0.3-0.2-0.5-0.3-0.7C50.7,67.5,50.5,67.4,50.2,67.4z"/>
<path class="st0" d="M56.7,67.4c-0.3,0-0.5,0.1-0.7,0.3c-0.2,0.2-0.3,0.3-0.3,0.6s0.1,0.4,0.2,0.6c0.1,0.2,0.3,0.3,0.5,0.3
	c0.2,0.1,0.4,0.2,0.7,0.2c0.3,0.1,0.5,0.2,0.8,0.3c0.3,0.1,0.5,0.2,0.7,0.3c0.3,0.2,0.4,0.3,0.5,0.6c0.1,0.3,0.2,0.5,0.2,1
	c0,0.6-0.3,1.1-0.7,1.6s-1.1,0.6-1.9,0.6s-1.4-0.2-1.9-0.5s-0.7-0.9-0.7-1.6h1.6c0.1,0.6,0.4,1,1.1,1c0.3,0,0.6-0.1,0.8-0.3
	c0.2-0.2,0.3-0.4,0.3-0.7s-0.1-0.5-0.3-0.7c-0.3-0.2-0.6-0.3-1-0.3c-0.3-0.1-0.7-0.2-1.1-0.3c-0.4-0.1-0.7-0.3-1-0.6
	c-0.3-0.3-0.3-0.7-0.3-1.2c0-0.7,0.3-1.2,0.7-1.6c0.5-0.4,1.1-0.6,1.8-0.6s1.4,0.2,1.8,0.5s0.7,0.9,0.8,1.6h-1.6
	c0-0.3-0.2-0.5-0.3-0.7C57.3,67.5,57,67.4,56.7,67.4z"/>
<path class="st0" d="M60.9,70.9v-4.5h1.5v4.5c0,0.5,0.1,0.9,0.3,1.1s0.6,0.3,1.1,0.3c0.5,0,0.9-0.1,1.1-0.3s0.3-0.6,0.3-1.1v-4.5
	h1.5v4.5c0,1-0.3,1.7-0.9,2.1c-0.6,0.5-1.3,0.8-2.1,0.8c-0.8,0-1.3-0.2-2-0.8C61.1,72.6,60.9,71.8,60.9,70.9z"/>
<path class="st0" d="M69.8,70.9v2.9h-1.5v-7.3H71c0.9,0,1.5,0.2,1.9,0.6s0.7,1,0.7,1.6c0,0.4-0.2,0.9-0.4,1.3
	c-0.3,0.4-0.7,0.7-1.3,0.8l1.8,3H72l-1.7-2.9H69.8L69.8,70.9z M69.8,67.5v2.1H71c0.3,0,0.6-0.1,0.9-0.3c0.3-0.2,0.3-0.4,0.3-0.8
	s-0.1-0.6-0.3-0.8c-0.2-0.2-0.4-0.3-0.9-0.3h-1.2V67.5z"/>
<path class="st0" d="M79.4,66.4v1.1h-2.7v1.9h2.4v1.1h-2.4v2h2.7v1.1h-4.2v-7.3h4.2V66.4z"/>
<path class="st0" d="M83.3,66.4c1.1,0,2.1,0.3,2.9,1c0.7,0.7,1,1.6,1,2.6s-0.3,2-1,2.6c-0.7,0.7-1.7,1-2.9,1h-2.4v-7.3h2.4V66.4z
	 M82.4,72.6h1c0.8,0,1.4-0.3,1.8-0.7s0.6-1,0.6-1.8s-0.2-1.4-0.6-1.8s-1-0.7-1.8-0.7h-1V72.6z"/>
<path class="st0" d="M23.2,77.2h1.5c0.3,0,0.7,0.1,0.9,0.3c0.2,0.2,0.3,0.4,0.3,0.7c0,0.4-0.3,0.7-0.7,0.8c0.3,0,0.4,0.2,0.6,0.3
	c0.2,0.2,0.2,0.3,0.2,0.6c0,0.3-0.1,0.5-0.3,0.7c-0.3,0.2-0.5,0.3-0.9,0.3h-1.6V77.2z M24,77.9v1h0.7c0.2,0,0.3,0,0.3-0.1
	c0.1-0.1,0.2-0.2,0.2-0.3s-0.1-0.3-0.2-0.3c-0.1-0.1-0.3-0.1-0.3-0.1L24,77.9L24,77.9z M24,80.4h0.8c0.2,0,0.3-0.1,0.4-0.2
	s0.2-0.2,0.2-0.3c0-0.2-0.1-0.3-0.2-0.3s-0.3-0.2-0.4-0.2h-0.7L24,80.4L24,80.4z"/>
<path class="st0" d="M29.3,77.2v0.5h-1.4v1h1.2v0.5h-1.2v1.1h1.4v0.5h-2.1v-3.7L29.3,77.2L29.3,77.2z"/>
<path class="st0" d="M32.9,77.2h0.7v3.1h1.1v0.5h-1.9L32.9,77.2L32.9,77.2z"/>
<path class="st0" d="M36,80.9v-3.7h0.7v3.7H36z"/>
<path class="st0" d="M38,77.2h1.5c0.3,0,0.7,0.1,0.9,0.3c0.2,0.2,0.3,0.4,0.3,0.7c0,0.4-0.3,0.7-0.7,0.8c0.3,0,0.4,0.2,0.6,0.3
	c0.2,0.2,0.2,0.3,0.2,0.6c0,0.3-0.1,0.5-0.3,0.7c-0.3,0.2-0.5,0.3-0.9,0.3H38V77.2z M38.8,77.9v1h0.7c0.2,0,0.3,0,0.3-0.1
	c0.1-0.1,0.2-0.2,0.2-0.3s-0.1-0.3-0.2-0.3c-0.1-0.1-0.3-0.1-0.3-0.1L38.8,77.9L38.8,77.9z M38.8,80.4h0.8c0.2,0,0.3-0.1,0.4-0.2
	c0.1-0.1,0.2-0.2,0.2-0.3c0-0.2-0.1-0.3-0.2-0.3c-0.1-0.1-0.3-0.2-0.4-0.2h-0.7L38.8,80.4L38.8,80.4z"/>
<path class="st0" d="M44.3,77.2v0.5h-1.4v1h1.2v0.5h-1.2v1.1h1.4v0.5h-2.1v-3.7L44.3,77.2L44.3,77.2z"/>
<path class="st0" d="M46.4,79.5V81h-0.7v-3.7H47c0.4,0,0.8,0.1,1,0.3c0.3,0.2,0.3,0.4,0.3,0.8c0,0.3-0.1,0.4-0.2,0.6
	c-0.2,0.2-0.3,0.3-0.7,0.4l1,1.5h-0.9l-0.9-1.5L46.4,79.5L46.4,79.5z M46.4,77.9v1H47c0.2,0,0.3-0.1,0.4-0.2
	c0.1-0.1,0.2-0.3,0.2-0.3c0-0.2-0.1-0.3-0.2-0.3c-0.1-0.1-0.3-0.2-0.4-0.2H46.4z"/>
<path class="st0" d="M52,80.9l-0.3-0.7h-1.3l-0.3,0.7h-0.8l1.3-3.7h0.9l1.3,3.7H52z M50.6,79.7h1l-0.5-1.5L50.6,79.7z"/>
<path class="st0" d="M53.7,77.9v-0.5h2.7v0.5h-1V81h-0.7v-3.1H53.7z"/>
<path class="st0" d="M59.7,77.2v0.5h-1.4v1h1.2v0.5h-1.2v1.1h1.4v0.5h-2.1v-3.7L59.7,77.2L59.7,77.2z"/>
<path class="st0" d="M62.4,77.2c0.6,0,1,0.2,1.4,0.5c0.3,0.3,0.5,0.8,0.5,1.3s-0.2,1-0.5,1.3c-0.3,0.3-0.9,0.5-1.4,0.5h-1.2v-3.7
	L62.4,77.2L62.4,77.2z M61.8,80.4h0.6c0.3,0,0.7-0.1,0.9-0.3c0.2-0.3,0.3-0.5,0.3-1s-0.1-0.7-0.3-1c-0.2-0.3-0.5-0.3-0.9-0.3h-0.5
	L61.8,80.4L61.8,80.4z"/>
</svg>
