<svg xmlns="http://www.w3.org/2000/svg" xmlns:xlink="http://www.w3.org/1999/xlink" width="286.367" height="33.836" viewBox="0 0 286.367 33.836">
  <defs>
    <linearGradient id="linear-gradient" x1="0.5" x2="0.5" y2="1" gradientUnits="objectBoundingBox">
      <stop offset="0" stop-color="#fff"/>
      <stop offset="1" stop-color="gray"/>
    </linearGradient>
    <clipPath id="clip-path">
      <path id="Path_135" data-name="Path 135" d="M171.923-121.686c-8.2,0-13.921,7.176-13.921,15.054h0c0,8.579,5.828,14.946,14.569,14.946h0c5.773,0,12.68-3.237,12.68-6.582h0a3.45,3.45,0,0,0-3.183-3.346h0c-2.05,0-4.8,3.13-8.8,3.13h0c-3.615,0-6.8-1.781-7.339-5.612H182.5c2.374,0,3.4-1.133,3.4-3.453h0C185.9-114.025,180.34-121.686,171.923-121.686Zm0,5.882c3.615,0,5.774,2.536,6.205,5.935H165.771c.378-3.291,2.7-5.935,6.151-5.935m-112.984-5.73v.017a15.18,15.18,0,0,0-14.485,15.174h0A15.18,15.18,0,0,0,58.96-91.191h0v.017h.69l53.358-.04c.191.007.382.014.575.014h0a15.181,15.181,0,0,0,15.17-15.191h0a15.181,15.181,0,0,0-15.192-15.17h0c-.1,0-.2.006-.3.008h0v-.022Zm-8.672,15.187a9.368,9.368,0,0,1,9.361-9.375h0l54.6-.041v.048a9.362,9.362,0,0,1,8.713,9.329h0a9.361,9.361,0,0,1-8.7,9.341h0v.019h-.374c-.1,0-.19.015-.288.015h0c-.1,0-.191-.011-.287-.014h0l-53.648.041h-.01a9.368,9.368,0,0,1-9.368-9.361M22.716-117.6a9.915,9.915,0,0,0-8.04-3.939h0a9.646,9.646,0,0,0-7.23,3.238h0a3.278,3.278,0,0,0-3.561-2.914h0C1.619-121.213,0-119.486,0-116.9H0v20.72c0,2.59,1.619,4.317,3.885,4.317h0c2.266,0,3.885-1.726,3.885-4.317h0V-109.72c0-3.129,1.4-5.341,4.587-5.341h0c2.805,0,4.532,2.213,4.532,5.341h0v13.544c0,2.59,1.619,4.317,3.885,4.317h0c2.266,0,3.884-1.726,3.884-4.317h0V-109.72c0-3.129,1.727-5.341,4.587-5.341h0c2.806,0,4.532,2.213,4.532,5.341h0v13.544c0,2.59,1.619,4.317,3.886,4.317h0c2.266,0,3.885-1.726,3.885-4.317h0v-14.892c0-6.8-4.317-10.468-10.629-10.468h0a11.7,11.7,0,0,0-8.2,3.939m126.3-.863-4.964,15.324h-.108l-4.964-15.324a3.54,3.54,0,0,0-3.453-2.752h0a3.751,3.751,0,0,0-4.047,3.777h0a5.71,5.71,0,0,0,.486,2.266h0L139.793-95.1c.755,2,1.565,3.237,4.208,3.237h0c2.644,0,3.453-1.241,4.209-3.237h0l7.824-20.073a5.71,5.71,0,0,0,.486-2.266h0a3.751,3.751,0,0,0-4.047-3.777h0a3.541,3.541,0,0,0-3.454,2.752m-41.867,12.106a4.988,4.988,0,0,0,4.988,4.988h0a4.988,4.988,0,0,0,4.988-4.988h0a4.988,4.988,0,0,0-4.988-4.988h0a4.988,4.988,0,0,0-4.988,4.988m-51.074,0a4.988,4.988,0,0,0,4.988,4.988h0a4.988,4.988,0,0,0,4.988-4.988h0a4.988,4.988,0,0,0-4.988-4.988h0a4.988,4.988,0,0,0-4.988,4.988" transform="translate(0 121.686)" fill="url(#linear-gradient)"/>
    </clipPath>
    <linearGradient id="linear-gradient-2" y1="1" x2="1" y2="1" gradientUnits="objectBoundingBox">
      <stop offset="0" stop-color="#ff1c26"/>
      <stop offset="0.1" stop-color="#fe1c26"/>
      <stop offset="0.2" stop-color="#fe1c26"/>
      <stop offset="0.3" stop-color="#fe1d25"/>
      <stop offset="0.4" stop-color="#fe1f24"/>
      <stop offset="0.5" stop-color="#fd2323"/>
      <stop offset="0.6" stop-color="#fb2920"/>
      <stop offset="0.7" stop-color="#f9321c"/>
      <stop offset="0.8" stop-color="#f53e17"/>
      <stop offset="0.9" stop-color="#f14f10"/>
      <stop offset="1" stop-color="#eb6408"/>
    </linearGradient>
  </defs>
  <g id="Group_472" data-name="Group 472" transform="translate(-142 -52)">
    <g id="Group_329" data-name="Group 329" transform="translate(142 175.373)">
      <g id="Group_328" data-name="Group 328" transform="translate(0 -121.686)" clip-path="url(#clip-path)">
        <g id="Group_327" data-name="Group 327" transform="translate(0 0)">
          <path id="Path_134" data-name="Path 134" d="M0-121.687H185.9v30.513H0Z" transform="translate(0 121.687)" fill="url(#linear-gradient-2)"/>
        </g>
      </g>
    </g>
    <g id="Group_331" data-name="Group 331" transform="translate(345 52)">
      <g id="Group_330" data-name="Group 330" transform="translate(14.672 4.671)">
        <path id="Path_136" data-name="Path 136" d="M21.179,23.855c-.468,1.789-.468,1.749-2.46,1.749-.854,0-1.118-.325-1.1-1.118.02-1.769,0-3.538,0-5.328,0-5.165.02-10.33-.02-15.474,0-1,.2-1.4,1.3-1.362,2.318.1,2.074-.264,2.074,2.115v6.121a9.8,9.8,0,0,1,9.008-2.074A7.515,7.515,0,0,1,34.62,11.9a8.86,8.86,0,0,1-.386,10.655C31.651,25.99,26.364,27.19,21.179,23.855ZM32.81,17.064a6.037,6.037,0,0,0-5.836-5.958c-3.03-.142-6.141,2.867-5.938,5.9.244,3.66,2.3,5.734,5.877,5.9A5.9,5.9,0,0,0,32.81,17.064Z" transform="translate(3.516 -2.275)"/>
        <path id="Path_137" data-name="Path 137" d="M22.231,23.674c-2.745,2.318-5.856,2.542-8.947,1.891a7.432,7.432,0,0,1-4.738-3.884,11.035,11.035,0,0,1-1.322-6.243c.081-3.9.061-7.788,0-11.692-.02-1.057.224-1.606,1.362-1.4a4.157,4.157,0,0,0,.712,0c1.566,0,1.586.061,1.606,1.566q.122,7.2.305,14.4c.041,1.647,1.932,3.6,3.518,4.067a5.649,5.649,0,0,0,6.019-1.464,6.613,6.613,0,0,0,1.647-4.779c.02-4.087.041-8.195-.02-12.282-.02-1.159.244-1.606,1.5-1.545,1.871.1,1.871.02,1.871,1.85q0,10.035-.02,20.09c0,.447-.244,1.24-.447,1.261a7.2,7.2,0,0,1-2.643-.142C22.394,25.321,22.394,24.426,22.231,23.674Z" transform="translate(-7.216 -2.297)"/>
        <path id="Path_138" data-name="Path 138" d="M31.147,15.479a4.539,4.539,0,0,0,2.745,3.782c2.989,1.525,5.511.488,7.6-1.85a18.439,18.439,0,0,1,1.769,1.383,1.042,1.042,0,0,1,.061,1.057A7.455,7.455,0,0,1,38.854,22.6a14.4,14.4,0,0,1-4.941,0,7.914,7.914,0,0,1-5.084-3.68,8.862,8.862,0,0,1-1.444-5.856,9.646,9.646,0,0,1,4.921-7.036A9.8,9.8,0,0,1,38.651,5.5a7.462,7.462,0,0,1,4.514,3.111,8.36,8.36,0,0,1,1.464,5.49c-.061.956-.264,1.3-1.281,1.281-3.6-.061-7.178-.02-10.777-.02C32.1,15.357,31.656,15.438,31.147,15.479Zm9.862-3.355A5.071,5.071,0,0,0,35.7,8.1a5.5,5.5,0,0,0-3.884,2.562,2.068,2.068,0,0,0-.346,1.22c.02.163.63.366.976.366,2.481.041,4.982.02,7.463,0A5.19,5.19,0,0,0,41.009,12.124Z" transform="translate(13.576 0.712)"/>
        <path id="Path_139" data-name="Path 139" d="M40.288,7.135c.732-.529,1.4-1.057,2.094-1.5a1.745,1.745,0,0,1,1-.305c.63.02,1.749.02,1.83.285a6.884,6.884,0,0,1,.061,2.664c-.02.142-.63.346-.976.346-2.562.081-3.782,1.1-3.924,3.721-.163,2.867-.122,5.755-.224,8.622-.02.508-.183,1.4-.407,1.444a10.786,10.786,0,0,1-2.684-.02c-.122-.02-.264-.529-.264-.834-.02-5.084,0-10.167-.02-15.251,0-.691.224-1.057.956-.976a3.808,3.808,0,0,0,.834,0c1.017-.122,1.728.081,1.566,1.342C40.1,6.79,40.227,6.952,40.288,7.135Z" transform="translate(23.326 0.8)"/>
      </g>
      <path id="Path_140" data-name="Path 140" d="M0,0H1.118V33.836H0Z" fill="#e95010"/>
    </g>
  </g>
</svg>
